# This file uses centimeters as units for non-parametric coordinates.

mtllib building2.mtl
g set5 tweakSet1
v -2.957517 0.000000 2.744479
v 2.864534 0.000000 2.744479
v -2.957517 12.027704 2.744479
v 2.864534 12.027704 2.744479
v -2.957517 12.027704 -2.664836
v 2.864534 12.027704 -2.664836
v -2.957517 0.000000 -2.664836
v 2.864534 0.000000 -2.664836
vt -0.000026 0.003202
vt 0.356263 0.003202
vt 0.356263 0.755387
vt -0.000026 0.755387
vt 0.359411 0.697339
vt 0.638980 0.697339
vt 0.638980 0.985844
vt 0.359411 0.985844
vt 0.356263 0.755387
vt -0.000026 0.755387
vt -0.000026 0.003202
vt 0.356263 0.003202
vt 0.380973 0.033364
vt 0.622582 0.033364
vt 0.622582 0.291825
vt 0.380973 0.291825
vt 0.651063 0.002532
vt 0.998380 0.002532
vt 0.998380 0.753847
vt 0.651063 0.753847
vt 0.651063 0.002532
vt 0.998380 0.002532
vt 0.998380 0.753847
vt 0.651063 0.753847
vn 0.000000 0.000000 1.000000
vn 0.000000 0.000000 1.000000
vn 0.000000 0.000000 1.000000
vn 0.000000 0.000000 1.000000
vn 0.000000 1.000000 0.000000
vn 0.000000 1.000000 0.000000
vn 0.000000 1.000000 0.000000
vn 0.000000 1.000000 0.000000
vn 0.000000 0.000000 -1.000000
vn 0.000000 0.000000 -1.000000
vn 0.000000 0.000000 -1.000000
vn 0.000000 0.000000 -1.000000
vn 0.000000 -1.000000 0.000000
vn 0.000000 -1.000000 0.000000
vn 0.000000 -1.000000 0.000000
vn 0.000000 -1.000000 0.000000
vn 1.000000 0.000000 0.000000
vn 1.000000 0.000000 0.000000
vn 1.000000 0.000000 0.000000
vn 1.000000 0.000000 0.000000
vn -1.000000 0.000000 0.000000
vn -1.000000 0.000000 0.000000
vn -1.000000 0.000000 0.000000
vn -1.000000 0.000000 0.000000
s off
g Building_2
usemtl phong2SG
f 1/1/1 2/2/2 4/3/3 3/4/4
f 3/5/5 4/6/6 6/7/7 5/8/8
f 5/9/9 6/10/10 8/11/11 7/12/12
f 7/13/13 8/14/14 2/15/15 1/16/16
f 2/17/17 8/18/18 6/19/19 4/20/20
f 7/21/21 1/22/22 3/23/23 5/24/24
